<?xml version="1.0" encoding="utf-8" standalone="no"?>
<!DOCTYPE svg PUBLIC "-//W3C//DTD SVG 1.1//EN"
  "http://www.w3.org/Graphics/SVG/1.1/DTD/svg11.dtd">
<!-- Created with matplotlib (https://matplotlib.org/) -->
<svg height="1152pt" version="1.1" viewBox="0 0 1008 1152" width="1008pt" xmlns="http://www.w3.org/2000/svg" xmlns:xlink="http://www.w3.org/1999/xlink">
 <defs>
  <style type="text/css">
*{stroke-linecap:butt;stroke-linejoin:round;}
  </style>
 </defs>
 <g id="figure_1">
  <g id="patch_1">
   <path d="M 0 1152 
L 1008 1152 
L 1008 0 
L 0 0 
z
" style="fill:none;"/>
  </g>
  <g id="axes_1">
   <g id="patch_2">
    <path d="M 126 864 
L 907.2 864 
L 907.2 138.24 
L 126 138.24 
z
" style="fill:none;"/>
   </g>
   <g id="matplotlib.axis_1">
    <g id="xtick_1">
     <g id="line2d_1">
      <defs>
       <path d="M 0 0 
L 0 3.5 
" id="m89ace8e713" style="stroke:#000000;stroke-width:0.8;"/>
      </defs>
      <g>
       <use style="stroke:#000000;stroke-width:0.8;" x="126" xlink:href="#m89ace8e713" y="864"/>
      </g>
     </g>
     <g id="text_1">
      <!-- 0.0 -->
      <defs>
       <path d="M 31.78125 66.40625 
Q 24.171875 66.40625 20.328125 58.90625 
Q 16.5 51.421875 16.5 36.375 
Q 16.5 21.390625 20.328125 13.890625 
Q 24.171875 6.390625 31.78125 6.390625 
Q 39.453125 6.390625 43.28125 13.890625 
Q 47.125 21.390625 47.125 36.375 
Q 47.125 51.421875 43.28125 58.90625 
Q 39.453125 66.40625 31.78125 66.40625 
z
M 31.78125 74.21875 
Q 44.046875 74.21875 50.515625 64.515625 
Q 56.984375 54.828125 56.984375 36.375 
Q 56.984375 17.96875 50.515625 8.265625 
Q 44.046875 -1.421875 31.78125 -1.421875 
Q 19.53125 -1.421875 13.0625 8.265625 
Q 6.59375 17.96875 6.59375 36.375 
Q 6.59375 54.828125 13.0625 64.515625 
Q 19.53125 74.21875 31.78125 74.21875 
z
" id="DejaVuSans-48"/>
       <path d="M 10.6875 12.40625 
L 21 12.40625 
L 21 0 
L 10.6875 0 
z
" id="DejaVuSans-46"/>
      </defs>
      <g transform="translate(118.048438 878.598438)scale(0.1 -0.1)">
       <use xlink:href="#DejaVuSans-48"/>
       <use x="63.623047" xlink:href="#DejaVuSans-46"/>
       <use x="95.410156" xlink:href="#DejaVuSans-48"/>
      </g>
     </g>
    </g>
    <g id="xtick_2">
     <g id="line2d_2">
      <g>
       <use style="stroke:#000000;stroke-width:0.8;" x="282.24" xlink:href="#m89ace8e713" y="864"/>
      </g>
     </g>
     <g id="text_2">
      <!-- 0.2 -->
      <defs>
       <path d="M 19.1875 8.296875 
L 53.609375 8.296875 
L 53.609375 0 
L 7.328125 0 
L 7.328125 8.296875 
Q 12.9375 14.109375 22.625 23.890625 
Q 32.328125 33.6875 34.8125 36.53125 
Q 39.546875 41.84375 41.421875 45.53125 
Q 43.3125 49.21875 43.3125 52.78125 
Q 43.3125 58.59375 39.234375 62.25 
Q 35.15625 65.921875 28.609375 65.921875 
Q 23.96875 65.921875 18.8125 64.3125 
Q 13.671875 62.703125 7.8125 59.421875 
L 7.8125 69.390625 
Q 13.765625 71.78125 18.9375 73 
Q 24.125 74.21875 28.421875 74.21875 
Q 39.75 74.21875 46.484375 68.546875 
Q 53.21875 62.890625 53.21875 53.421875 
Q 53.21875 48.921875 51.53125 44.890625 
Q 49.859375 40.875 45.40625 35.40625 
Q 44.1875 33.984375 37.640625 27.21875 
Q 31.109375 20.453125 19.1875 8.296875 
z
" id="DejaVuSans-50"/>
      </defs>
      <g transform="translate(274.288437 878.598438)scale(0.1 -0.1)">
       <use xlink:href="#DejaVuSans-48"/>
       <use x="63.623047" xlink:href="#DejaVuSans-46"/>
       <use x="95.410156" xlink:href="#DejaVuSans-50"/>
      </g>
     </g>
    </g>
    <g id="xtick_3">
     <g id="line2d_3">
      <g>
       <use style="stroke:#000000;stroke-width:0.8;" x="438.48" xlink:href="#m89ace8e713" y="864"/>
      </g>
     </g>
     <g id="text_3">
      <!-- 0.4 -->
      <defs>
       <path d="M 37.796875 64.3125 
L 12.890625 25.390625 
L 37.796875 25.390625 
z
M 35.203125 72.90625 
L 47.609375 72.90625 
L 47.609375 25.390625 
L 58.015625 25.390625 
L 58.015625 17.1875 
L 47.609375 17.1875 
L 47.609375 0 
L 37.796875 0 
L 37.796875 17.1875 
L 4.890625 17.1875 
L 4.890625 26.703125 
z
" id="DejaVuSans-52"/>
      </defs>
      <g transform="translate(430.528437 878.598438)scale(0.1 -0.1)">
       <use xlink:href="#DejaVuSans-48"/>
       <use x="63.623047" xlink:href="#DejaVuSans-46"/>
       <use x="95.410156" xlink:href="#DejaVuSans-52"/>
      </g>
     </g>
    </g>
    <g id="xtick_4">
     <g id="line2d_4">
      <g>
       <use style="stroke:#000000;stroke-width:0.8;" x="594.72" xlink:href="#m89ace8e713" y="864"/>
      </g>
     </g>
     <g id="text_4">
      <!-- 0.6 -->
      <defs>
       <path d="M 33.015625 40.375 
Q 26.375 40.375 22.484375 35.828125 
Q 18.609375 31.296875 18.609375 23.390625 
Q 18.609375 15.53125 22.484375 10.953125 
Q 26.375 6.390625 33.015625 6.390625 
Q 39.65625 6.390625 43.53125 10.953125 
Q 47.40625 15.53125 47.40625 23.390625 
Q 47.40625 31.296875 43.53125 35.828125 
Q 39.65625 40.375 33.015625 40.375 
z
M 52.59375 71.296875 
L 52.59375 62.3125 
Q 48.875 64.0625 45.09375 64.984375 
Q 41.3125 65.921875 37.59375 65.921875 
Q 27.828125 65.921875 22.671875 59.328125 
Q 17.53125 52.734375 16.796875 39.40625 
Q 19.671875 43.65625 24.015625 45.921875 
Q 28.375 48.1875 33.59375 48.1875 
Q 44.578125 48.1875 50.953125 41.515625 
Q 57.328125 34.859375 57.328125 23.390625 
Q 57.328125 12.15625 50.6875 5.359375 
Q 44.046875 -1.421875 33.015625 -1.421875 
Q 20.359375 -1.421875 13.671875 8.265625 
Q 6.984375 17.96875 6.984375 36.375 
Q 6.984375 53.65625 15.1875 63.9375 
Q 23.390625 74.21875 37.203125 74.21875 
Q 40.921875 74.21875 44.703125 73.484375 
Q 48.484375 72.75 52.59375 71.296875 
z
" id="DejaVuSans-54"/>
      </defs>
      <g transform="translate(586.768438 878.598438)scale(0.1 -0.1)">
       <use xlink:href="#DejaVuSans-48"/>
       <use x="63.623047" xlink:href="#DejaVuSans-46"/>
       <use x="95.410156" xlink:href="#DejaVuSans-54"/>
      </g>
     </g>
    </g>
    <g id="xtick_5">
     <g id="line2d_5">
      <g>
       <use style="stroke:#000000;stroke-width:0.8;" x="750.96" xlink:href="#m89ace8e713" y="864"/>
      </g>
     </g>
     <g id="text_5">
      <!-- 0.8 -->
      <defs>
       <path d="M 31.78125 34.625 
Q 24.75 34.625 20.71875 30.859375 
Q 16.703125 27.09375 16.703125 20.515625 
Q 16.703125 13.921875 20.71875 10.15625 
Q 24.75 6.390625 31.78125 6.390625 
Q 38.8125 6.390625 42.859375 10.171875 
Q 46.921875 13.96875 46.921875 20.515625 
Q 46.921875 27.09375 42.890625 30.859375 
Q 38.875 34.625 31.78125 34.625 
z
M 21.921875 38.8125 
Q 15.578125 40.375 12.03125 44.71875 
Q 8.5 49.078125 8.5 55.328125 
Q 8.5 64.0625 14.71875 69.140625 
Q 20.953125 74.21875 31.78125 74.21875 
Q 42.671875 74.21875 48.875 69.140625 
Q 55.078125 64.0625 55.078125 55.328125 
Q 55.078125 49.078125 51.53125 44.71875 
Q 48 40.375 41.703125 38.8125 
Q 48.828125 37.15625 52.796875 32.3125 
Q 56.78125 27.484375 56.78125 20.515625 
Q 56.78125 9.90625 50.3125 4.234375 
Q 43.84375 -1.421875 31.78125 -1.421875 
Q 19.734375 -1.421875 13.25 4.234375 
Q 6.78125 9.90625 6.78125 20.515625 
Q 6.78125 27.484375 10.78125 32.3125 
Q 14.796875 37.15625 21.921875 38.8125 
z
M 18.3125 54.390625 
Q 18.3125 48.734375 21.84375 45.5625 
Q 25.390625 42.390625 31.78125 42.390625 
Q 38.140625 42.390625 41.71875 45.5625 
Q 45.3125 48.734375 45.3125 54.390625 
Q 45.3125 60.0625 41.71875 63.234375 
Q 38.140625 66.40625 31.78125 66.40625 
Q 25.390625 66.40625 21.84375 63.234375 
Q 18.3125 60.0625 18.3125 54.390625 
z
" id="DejaVuSans-56"/>
      </defs>
      <g transform="translate(743.008438 878.598438)scale(0.1 -0.1)">
       <use xlink:href="#DejaVuSans-48"/>
       <use x="63.623047" xlink:href="#DejaVuSans-46"/>
       <use x="95.410156" xlink:href="#DejaVuSans-56"/>
      </g>
     </g>
    </g>
    <g id="xtick_6">
     <g id="line2d_6">
      <g>
       <use style="stroke:#000000;stroke-width:0.8;" x="907.2" xlink:href="#m89ace8e713" y="864"/>
      </g>
     </g>
     <g id="text_6">
      <!-- 1.0 -->
      <defs>
       <path d="M 12.40625 8.296875 
L 28.515625 8.296875 
L 28.515625 63.921875 
L 10.984375 60.40625 
L 10.984375 69.390625 
L 28.421875 72.90625 
L 38.28125 72.90625 
L 38.28125 8.296875 
L 54.390625 8.296875 
L 54.390625 0 
L 12.40625 0 
z
" id="DejaVuSans-49"/>
      </defs>
      <g transform="translate(899.248438 878.598438)scale(0.1 -0.1)">
       <use xlink:href="#DejaVuSans-49"/>
       <use x="63.623047" xlink:href="#DejaVuSans-46"/>
       <use x="95.410156" xlink:href="#DejaVuSans-48"/>
      </g>
     </g>
    </g>
    <g id="text_7">
     <!-- Recall -->
     <defs>
      <path d="M 44.390625 34.1875 
Q 47.5625 33.109375 50.5625 29.59375 
Q 53.5625 26.078125 56.59375 19.921875 
L 66.609375 0 
L 56 0 
L 46.6875 18.703125 
Q 43.0625 26.03125 39.671875 28.421875 
Q 36.28125 30.8125 30.421875 30.8125 
L 19.671875 30.8125 
L 19.671875 0 
L 9.8125 0 
L 9.8125 72.90625 
L 32.078125 72.90625 
Q 44.578125 72.90625 50.734375 67.671875 
Q 56.890625 62.453125 56.890625 51.90625 
Q 56.890625 45.015625 53.6875 40.46875 
Q 50.484375 35.9375 44.390625 34.1875 
z
M 19.671875 64.796875 
L 19.671875 38.921875 
L 32.078125 38.921875 
Q 39.203125 38.921875 42.84375 42.21875 
Q 46.484375 45.515625 46.484375 51.90625 
Q 46.484375 58.296875 42.84375 61.546875 
Q 39.203125 64.796875 32.078125 64.796875 
z
" id="DejaVuSans-82"/>
      <path d="M 56.203125 29.59375 
L 56.203125 25.203125 
L 14.890625 25.203125 
Q 15.484375 15.921875 20.484375 11.0625 
Q 25.484375 6.203125 34.421875 6.203125 
Q 39.59375 6.203125 44.453125 7.46875 
Q 49.3125 8.734375 54.109375 11.28125 
L 54.109375 2.78125 
Q 49.265625 0.734375 44.1875 -0.34375 
Q 39.109375 -1.421875 33.890625 -1.421875 
Q 20.796875 -1.421875 13.15625 6.1875 
Q 5.515625 13.8125 5.515625 26.8125 
Q 5.515625 40.234375 12.765625 48.109375 
Q 20.015625 56 32.328125 56 
Q 43.359375 56 49.78125 48.890625 
Q 56.203125 41.796875 56.203125 29.59375 
z
M 47.21875 32.234375 
Q 47.125 39.59375 43.09375 43.984375 
Q 39.0625 48.390625 32.421875 48.390625 
Q 24.90625 48.390625 20.390625 44.140625 
Q 15.875 39.890625 15.1875 32.171875 
z
" id="DejaVuSans-101"/>
      <path d="M 48.78125 52.59375 
L 48.78125 44.1875 
Q 44.96875 46.296875 41.140625 47.34375 
Q 37.3125 48.390625 33.40625 48.390625 
Q 24.65625 48.390625 19.8125 42.84375 
Q 14.984375 37.3125 14.984375 27.296875 
Q 14.984375 17.28125 19.8125 11.734375 
Q 24.65625 6.203125 33.40625 6.203125 
Q 37.3125 6.203125 41.140625 7.25 
Q 44.96875 8.296875 48.78125 10.40625 
L 48.78125 2.09375 
Q 45.015625 0.34375 40.984375 -0.53125 
Q 36.96875 -1.421875 32.421875 -1.421875 
Q 20.0625 -1.421875 12.78125 6.34375 
Q 5.515625 14.109375 5.515625 27.296875 
Q 5.515625 40.671875 12.859375 48.328125 
Q 20.21875 56 33.015625 56 
Q 37.15625 56 41.109375 55.140625 
Q 45.0625 54.296875 48.78125 52.59375 
z
" id="DejaVuSans-99"/>
      <path d="M 34.28125 27.484375 
Q 23.390625 27.484375 19.1875 25 
Q 14.984375 22.515625 14.984375 16.5 
Q 14.984375 11.71875 18.140625 8.90625 
Q 21.296875 6.109375 26.703125 6.109375 
Q 34.1875 6.109375 38.703125 11.40625 
Q 43.21875 16.703125 43.21875 25.484375 
L 43.21875 27.484375 
z
M 52.203125 31.203125 
L 52.203125 0 
L 43.21875 0 
L 43.21875 8.296875 
Q 40.140625 3.328125 35.546875 0.953125 
Q 30.953125 -1.421875 24.3125 -1.421875 
Q 15.921875 -1.421875 10.953125 3.296875 
Q 6 8.015625 6 15.921875 
Q 6 25.140625 12.171875 29.828125 
Q 18.359375 34.515625 30.609375 34.515625 
L 43.21875 34.515625 
L 43.21875 35.40625 
Q 43.21875 41.609375 39.140625 45 
Q 35.0625 48.390625 27.6875 48.390625 
Q 23 48.390625 18.546875 47.265625 
Q 14.109375 46.140625 10.015625 43.890625 
L 10.015625 52.203125 
Q 14.9375 54.109375 19.578125 55.046875 
Q 24.21875 56 28.609375 56 
Q 40.484375 56 46.34375 49.84375 
Q 52.203125 43.703125 52.203125 31.203125 
z
" id="DejaVuSans-97"/>
      <path d="M 9.421875 75.984375 
L 18.40625 75.984375 
L 18.40625 0 
L 9.421875 0 
z
" id="DejaVuSans-108"/>
     </defs>
     <g transform="translate(486.321875 899.875)scale(0.2 -0.2)">
      <use xlink:href="#DejaVuSans-82"/>
      <use x="69.419922" xlink:href="#DejaVuSans-101"/>
      <use x="130.943359" xlink:href="#DejaVuSans-99"/>
      <use x="185.923828" xlink:href="#DejaVuSans-97"/>
      <use x="247.203125" xlink:href="#DejaVuSans-108"/>
      <use x="274.986328" xlink:href="#DejaVuSans-108"/>
     </g>
    </g>
   </g>
   <g id="matplotlib.axis_2">
    <g id="ytick_1">
     <g id="line2d_7">
      <defs>
       <path d="M 0 0 
L -3.5 0 
" id="m8218c16c66" style="stroke:#000000;stroke-width:0.8;"/>
      </defs>
      <g>
       <use style="stroke:#000000;stroke-width:0.8;" x="126" xlink:href="#m8218c16c66" y="864"/>
      </g>
     </g>
     <g id="text_8">
      <!-- 0.0 -->
      <g transform="translate(103.096875 867.799219)scale(0.1 -0.1)">
       <use xlink:href="#DejaVuSans-48"/>
       <use x="63.623047" xlink:href="#DejaVuSans-46"/>
       <use x="95.410156" xlink:href="#DejaVuSans-48"/>
      </g>
     </g>
    </g>
    <g id="ytick_2">
     <g id="line2d_8">
      <g>
       <use style="stroke:#000000;stroke-width:0.8;" x="126" xlink:href="#m8218c16c66" y="725.76"/>
      </g>
     </g>
     <g id="text_9">
      <!-- 0.2 -->
      <g transform="translate(103.096875 729.559219)scale(0.1 -0.1)">
       <use xlink:href="#DejaVuSans-48"/>
       <use x="63.623047" xlink:href="#DejaVuSans-46"/>
       <use x="95.410156" xlink:href="#DejaVuSans-50"/>
      </g>
     </g>
    </g>
    <g id="ytick_3">
     <g id="line2d_9">
      <g>
       <use style="stroke:#000000;stroke-width:0.8;" x="126" xlink:href="#m8218c16c66" y="587.52"/>
      </g>
     </g>
     <g id="text_10">
      <!-- 0.4 -->
      <g transform="translate(103.096875 591.319219)scale(0.1 -0.1)">
       <use xlink:href="#DejaVuSans-48"/>
       <use x="63.623047" xlink:href="#DejaVuSans-46"/>
       <use x="95.410156" xlink:href="#DejaVuSans-52"/>
      </g>
     </g>
    </g>
    <g id="ytick_4">
     <g id="line2d_10">
      <g>
       <use style="stroke:#000000;stroke-width:0.8;" x="126" xlink:href="#m8218c16c66" y="449.28"/>
      </g>
     </g>
     <g id="text_11">
      <!-- 0.6 -->
      <g transform="translate(103.096875 453.079219)scale(0.1 -0.1)">
       <use xlink:href="#DejaVuSans-48"/>
       <use x="63.623047" xlink:href="#DejaVuSans-46"/>
       <use x="95.410156" xlink:href="#DejaVuSans-54"/>
      </g>
     </g>
    </g>
    <g id="ytick_5">
     <g id="line2d_11">
      <g>
       <use style="stroke:#000000;stroke-width:0.8;" x="126" xlink:href="#m8218c16c66" y="311.04"/>
      </g>
     </g>
     <g id="text_12">
      <!-- 0.8 -->
      <g transform="translate(103.096875 314.839219)scale(0.1 -0.1)">
       <use xlink:href="#DejaVuSans-48"/>
       <use x="63.623047" xlink:href="#DejaVuSans-46"/>
       <use x="95.410156" xlink:href="#DejaVuSans-56"/>
      </g>
     </g>
    </g>
    <g id="ytick_6">
     <g id="line2d_12">
      <g>
       <use style="stroke:#000000;stroke-width:0.8;" x="126" xlink:href="#m8218c16c66" y="172.8"/>
      </g>
     </g>
     <g id="text_13">
      <!-- 1.0 -->
      <g transform="translate(103.096875 176.599219)scale(0.1 -0.1)">
       <use xlink:href="#DejaVuSans-49"/>
       <use x="63.623047" xlink:href="#DejaVuSans-46"/>
       <use x="95.410156" xlink:href="#DejaVuSans-48"/>
      </g>
     </g>
    </g>
    <g id="text_14">
     <!-- Precision -->
     <defs>
      <path d="M 19.671875 64.796875 
L 19.671875 37.40625 
L 32.078125 37.40625 
Q 38.96875 37.40625 42.71875 40.96875 
Q 46.484375 44.53125 46.484375 51.125 
Q 46.484375 57.671875 42.71875 61.234375 
Q 38.96875 64.796875 32.078125 64.796875 
z
M 9.8125 72.90625 
L 32.078125 72.90625 
Q 44.34375 72.90625 50.609375 67.359375 
Q 56.890625 61.8125 56.890625 51.125 
Q 56.890625 40.328125 50.609375 34.8125 
Q 44.34375 29.296875 32.078125 29.296875 
L 19.671875 29.296875 
L 19.671875 0 
L 9.8125 0 
z
" id="DejaVuSans-80"/>
      <path d="M 41.109375 46.296875 
Q 39.59375 47.171875 37.8125 47.578125 
Q 36.03125 48 33.890625 48 
Q 26.265625 48 22.1875 43.046875 
Q 18.109375 38.09375 18.109375 28.8125 
L 18.109375 0 
L 9.078125 0 
L 9.078125 54.6875 
L 18.109375 54.6875 
L 18.109375 46.1875 
Q 20.953125 51.171875 25.484375 53.578125 
Q 30.03125 56 36.53125 56 
Q 37.453125 56 38.578125 55.875 
Q 39.703125 55.765625 41.0625 55.515625 
z
" id="DejaVuSans-114"/>
      <path d="M 9.421875 54.6875 
L 18.40625 54.6875 
L 18.40625 0 
L 9.421875 0 
z
M 9.421875 75.984375 
L 18.40625 75.984375 
L 18.40625 64.59375 
L 9.421875 64.59375 
z
" id="DejaVuSans-105"/>
      <path d="M 44.28125 53.078125 
L 44.28125 44.578125 
Q 40.484375 46.53125 36.375 47.5 
Q 32.28125 48.484375 27.875 48.484375 
Q 21.1875 48.484375 17.84375 46.4375 
Q 14.5 44.390625 14.5 40.28125 
Q 14.5 37.15625 16.890625 35.375 
Q 19.28125 33.59375 26.515625 31.984375 
L 29.59375 31.296875 
Q 39.15625 29.25 43.1875 25.515625 
Q 47.21875 21.78125 47.21875 15.09375 
Q 47.21875 7.46875 41.1875 3.015625 
Q 35.15625 -1.421875 24.609375 -1.421875 
Q 20.21875 -1.421875 15.453125 -0.5625 
Q 10.6875 0.296875 5.421875 2 
L 5.421875 11.28125 
Q 10.40625 8.6875 15.234375 7.390625 
Q 20.0625 6.109375 24.8125 6.109375 
Q 31.15625 6.109375 34.5625 8.28125 
Q 37.984375 10.453125 37.984375 14.40625 
Q 37.984375 18.0625 35.515625 20.015625 
Q 33.0625 21.96875 24.703125 23.78125 
L 21.578125 24.515625 
Q 13.234375 26.265625 9.515625 29.90625 
Q 5.8125 33.546875 5.8125 39.890625 
Q 5.8125 47.609375 11.28125 51.796875 
Q 16.75 56 26.8125 56 
Q 31.78125 56 36.171875 55.265625 
Q 40.578125 54.546875 44.28125 53.078125 
z
" id="DejaVuSans-115"/>
      <path d="M 30.609375 48.390625 
Q 23.390625 48.390625 19.1875 42.75 
Q 14.984375 37.109375 14.984375 27.296875 
Q 14.984375 17.484375 19.15625 11.84375 
Q 23.34375 6.203125 30.609375 6.203125 
Q 37.796875 6.203125 41.984375 11.859375 
Q 46.1875 17.53125 46.1875 27.296875 
Q 46.1875 37.015625 41.984375 42.703125 
Q 37.796875 48.390625 30.609375 48.390625 
z
M 30.609375 56 
Q 42.328125 56 49.015625 48.375 
Q 55.71875 40.765625 55.71875 27.296875 
Q 55.71875 13.875 49.015625 6.21875 
Q 42.328125 -1.421875 30.609375 -1.421875 
Q 18.84375 -1.421875 12.171875 6.21875 
Q 5.515625 13.875 5.515625 27.296875 
Q 5.515625 40.765625 12.171875 48.375 
Q 18.84375 56 30.609375 56 
z
" id="DejaVuSans-111"/>
      <path d="M 54.890625 33.015625 
L 54.890625 0 
L 45.90625 0 
L 45.90625 32.71875 
Q 45.90625 40.484375 42.875 44.328125 
Q 39.84375 48.1875 33.796875 48.1875 
Q 26.515625 48.1875 22.3125 43.546875 
Q 18.109375 38.921875 18.109375 30.90625 
L 18.109375 0 
L 9.078125 0 
L 9.078125 54.6875 
L 18.109375 54.6875 
L 18.109375 46.1875 
Q 21.34375 51.125 25.703125 53.5625 
Q 30.078125 56 35.796875 56 
Q 45.21875 56 50.046875 50.171875 
Q 54.890625 44.34375 54.890625 33.015625 
z
" id="DejaVuSans-110"/>
     </defs>
     <g transform="translate(94.9375 546.129375)rotate(-90)scale(0.2 -0.2)">
      <use xlink:href="#DejaVuSans-80"/>
      <use x="60.287109" xlink:href="#DejaVuSans-114"/>
      <use x="101.369141" xlink:href="#DejaVuSans-101"/>
      <use x="162.892578" xlink:href="#DejaVuSans-99"/>
      <use x="217.873047" xlink:href="#DejaVuSans-105"/>
      <use x="245.65625" xlink:href="#DejaVuSans-115"/>
      <use x="297.755859" xlink:href="#DejaVuSans-105"/>
      <use x="325.539062" xlink:href="#DejaVuSans-111"/>
      <use x="386.720703" xlink:href="#DejaVuSans-110"/>
     </g>
    </g>
   </g>
   <g id="line2d_13">
    <path clip-path="url(#p3b5307a6d9)" d="M 907.2 626.201835 
L 896.784 628.291244 
L 896.784 618.092308 
L 886.368 620.243478 
L 886.368 612.967164 
L 875.952 615.168 
L 875.952 612.654545 
L 855.12 617.142857 
L 855.12 613.305699 
L 834.288 617.918325 
L 834.288 613.991489 
L 823.872 616.350802 
L 823.872 608.141436 
L 813.456 610.56 
L 813.456 606.264407 
L 803.04 608.727273 
L 803.04 607.268571 
L 792.624 609.765517 
L 792.624 606.809302 
L 771.792 611.915294 
L 771.792 610.423669 
L 740.544 618.33253 
L 730.128 621.032727 
L 730.128 607.015385 
L 719.712 609.816774 
L 719.712 604.8 
L 709.296 607.660927 
L 709.296 600.685714 
L 698.88 603.616438 
L 698.88 601.82069 
L 678.048 607.820979 
L 657.216 613.991489 
L 657.216 602.88 
L 646.8 606.089552 
L 646.8 600.183206 
L 625.968 606.809302 
L 625.968 604.8 
L 615.552 608.201575 
L 615.552 602.012903 
L 605.136 605.502439 
L 605.136 587.52 
L 594.72 591.157895 
L 594.72 581.236364 
L 584.304 584.983486 
L 584.304 577.086792 
L 563.472 584.861538 
L 563.472 579.388235 
L 542.64 587.52 
L 542.64 584.727273 
L 532.224 588.930612 
L 532.224 583.2 
L 521.808 587.52 
L 521.808 584.578723 
L 511.392 589.006452 
L 511.392 586.017391 
L 500.976 590.558242 
L 500.976 587.52 
L 480.144 596.945455 
L 480.144 584.228571 
L 459.312 594.263415 
L 448.896 599.466667 
L 448.896 596.16 
L 438.48 601.518987 
L 428.064 607.015385 
L 428.064 603.677922 
L 417.648 609.347368 
L 417.648 605.952 
L 407.232 611.805405 
L 396.816 617.819178 
L 396.816 599.717647 
L 386.4 606.089552 
L 386.4 602.181818 
L 375.984 608.787692 
L 375.984 604.8 
L 365.568 611.657143 
L 365.568 599.04 
L 355.152 606.264407 
L 355.152 601.82069 
L 344.736 609.347368 
L 344.736 590.128302 
L 334.32 598.153846 
L 334.32 592.941176 
L 323.904 601.344 
L 323.904 595.983673 
L 313.488 604.8 
L 313.488 581.236364 
L 303.072 590.734884 
L 303.072 584.228571 
L 292.656 594.263415 
L 292.656 587.52 
L 282.24 598.153846 
L 282.24 567.771429 
L 271.824 579.388235 
L 271.824 551.845161 
L 261.408 564.48 
L 250.992 577.986207 
L 240.576 592.457143 
L 230.16 608 
L 230.16 587.52 
L 219.744 604.8 
L 219.744 475.2 
L 209.328 495.36 
L 209.328 361.309091 
L 198.912 380.16 
L 188.496 403.2 
L 178.08 432 
L 167.664 469.028571 
L 167.664 403.2 
L 157.248 449.28 
L 146.832 518.4 
L 146.832 172.8 
L 126 172.8 
L 126 172.8 
" style="fill:none;stroke:#ffd700;stroke-linecap:square;stroke-width:2;"/>
   </g>
   <g id="line2d_14">
    <path clip-path="url(#p3b5307a6d9)" d="M 907.2 658.8 
L 866.084211 666.514286 
L 866.084211 663.329032 
L 866.084211 660.039344 
L 866.084211 656.64 
L 866.084211 653.125424 
L 824.968421 661.406897 
L 824.968421 657.852632 
L 824.968421 654.171429 
L 824.968421 650.356364 
L 824.968421 646.4 
L 824.968421 642.29434 
L 824.968421 638.030769 
L 783.852632 647.152941 
L 783.852632 642.816 
L 783.852632 638.302041 
L 783.852632 633.6 
L 783.852632 628.697872 
L 783.852632 623.582609 
L 783.852632 618.24 
L 783.852632 612.654545 
L 742.736842 622.883721 
L 742.736842 617.142857 
L 742.736842 611.121951 
L 742.736842 604.8 
L 742.736842 598.153846 
L 742.736842 591.157895 
L 742.736842 583.783784 
L 742.736842 576 
L 742.736842 567.771429 
L 742.736842 559.058824 
L 742.736842 549.818182 
L 742.736842 540 
L 742.736842 529.548387 
L 701.621053 541.44 
L 660.505263 554.151724 
L 660.505263 543.085714 
L 660.505263 531.2 
L 660.505263 518.4 
L 619.389474 532.224 
L 578.273684 547.2 
L 537.157895 563.478261 
L 537.157895 549.818182 
L 537.157895 534.857143 
L 537.157895 518.4 
L 537.157895 500.210526 
L 496.042105 518.4 
L 496.042105 498.070588 
L 454.926316 518.4 
L 454.926316 495.36 
L 454.926316 469.028571 
L 454.926316 438.646154 
L 454.926316 403.2 
L 413.810526 424.145455 
L 413.810526 380.16 
L 372.694737 403.2 
L 372.694737 345.6 
L 331.578947 370.285714 
L 290.463158 403.2 
L 249.347368 449.28 
L 249.347368 345.6 
L 208.231579 403.2 
L 167.115789 518.4 
L 167.115789 172.8 
L 126 172.8 
" style="fill:none;stroke:#0000ff;stroke-linecap:square;stroke-width:2;"/>
   </g>
   <g id="line2d_15">
    <path clip-path="url(#p3b5307a6d9)" d="M 907.2 596.736 
L 880.262069 602.464865 
L 880.262069 598.882192 
L 880.262069 595.2 
L 880.262069 591.414085 
L 880.262069 587.52 
L 880.262069 583.513043 
L 880.262069 579.388235 
L 853.324138 585.456716 
L 826.386207 591.709091 
L 826.386207 587.52 
L 826.386207 583.2 
L 826.386207 578.742857 
L 799.448276 585.290323 
L 799.448276 580.721311 
L 772.510345 587.52 
L 772.510345 582.833898 
L 772.510345 577.986207 
L 772.510345 572.968421 
L 772.510345 567.771429 
L 745.572414 574.952727 
L 718.634483 582.4 
L 718.634483 577.086792 
L 691.696552 584.861538 
L 691.696552 579.388235 
L 691.696552 573.696 
L 664.758621 581.877551 
L 664.758621 576 
L 664.758621 569.87234 
L 664.758621 563.478261 
L 637.82069 572.16 
L 610.882759 581.236364 
L 583.944828 590.734884 
L 557.006897 600.685714 
L 557.006897 594.263415 
L 530.068966 604.8 
L 530.068966 598.153846 
L 530.068966 591.157895 
L 503.131034 602.464865 
L 476.193103 614.4 
L 476.193103 607.268571 
L 476.193103 599.717647 
L 476.193103 591.709091 
L 449.255172 604.8 
L 449.255172 596.43871 
L 449.255172 587.52 
L 422.317241 601.82069 
L 395.37931 617.142857 
L 368.441379 633.6 
L 341.503448 651.323077 
L 341.503448 642.816 
L 341.503448 633.6 
L 314.565517 653.634783 
L 314.565517 644.072727 
L 314.565517 633.6 
L 314.565517 622.08 
L 314.565517 609.347368 
L 287.627586 633.6 
L 260.689655 660.705882 
L 233.751724 691.2 
L 233.751724 679.68 
L 233.751724 666.514286 
L 206.813793 704.492308 
L 206.813793 691.2 
L 179.875862 738.327273 
L 179.875862 725.76 
L 152.937931 787.2 
L 152.937931 777.6 
L 152.937931 765.257143 
L 126 864 
L 126 864 
L 126 864 
L 126 864 
L 126 864 
L 126 864 
L 126 172.8 
" style="fill:none;stroke:#008000;stroke-linecap:square;stroke-width:2;"/>
   </g>
   <g id="line2d_16">
    <path clip-path="url(#p3b5307a6d9)" d="M 907.2 608.350685 
L 878.266667 614.4 
L 878.266667 610.884507 
L 878.266667 607.268571 
L 849.333333 613.565217 
L 849.333333 609.882353 
L 820.4 616.40597 
L 791.466667 623.127273 
L 762.533333 630.055385 
L 733.6 637.2 
L 733.6 633.6 
L 733.6 629.883871 
L 733.6 626.045902 
L 733.6 622.08 
L 733.6 617.979661 
L 733.6 613.737931 
L 704.666667 621.473684 
L 704.666667 617.142857 
L 704.666667 612.654545 
L 704.666667 608 
L 704.666667 603.169811 
L 704.666667 598.153846 
L 675.733333 606.494118 
L 646.8 615.168 
L 646.8 610.089796 
L 646.8 604.8 
L 646.8 599.285106 
L 646.8 593.530435 
L 646.8 587.52 
L 617.866667 596.945455 
L 617.866667 590.734884 
L 588.933333 600.685714 
L 560 611.121951 
L 560 604.8 
L 560 598.153846 
L 560 591.157895 
L 531.066667 602.464865 
L 531.066667 595.2 
L 531.066667 587.52 
L 502.133333 599.717647 
L 473.2 612.654545 
L 444.266667 626.4 
L 415.333333 641.032258 
L 386.4 656.64 
L 386.4 649.489655 
L 386.4 641.828571 
L 386.4 633.6 
L 386.4 624.738462 
L 357.466667 642.816 
L 357.466667 633.6 
L 357.466667 623.582609 
L 328.533333 644.072727 
L 328.533333 633.6 
L 328.533333 622.08 
L 328.533333 609.347368 
L 328.533333 595.2 
L 328.533333 579.388235 
L 328.533333 561.6 
L 299.6 587.52 
L 299.6 567.771429 
L 299.6 544.984615 
L 299.6 518.4 
L 299.6 486.981818 
L 299.6 449.28 
L 299.6 403.2 
L 270.666667 432 
L 270.666667 370.285714 
L 270.666667 288 
L 241.733333 311.04 
L 212.8 345.6 
L 183.866667 403.2 
L 154.933333 518.4 
L 154.933333 172.8 
L 126 172.8 
" style="fill:none;stroke:#ff0000;stroke-linecap:square;stroke-width:2;"/>
   </g>
   <g id="patch_3">
    <path d="M 126 864 
L 126 138.24 
" style="fill:none;stroke:#000000;stroke-linecap:square;stroke-linejoin:miter;stroke-width:0.8;"/>
   </g>
   <g id="patch_4">
    <path d="M 907.2 864 
L 907.2 138.24 
" style="fill:none;stroke:#000000;stroke-linecap:square;stroke-linejoin:miter;stroke-width:0.8;"/>
   </g>
   <g id="patch_5">
    <path d="M 126 864 
L 907.2 864 
" style="fill:none;stroke:#000000;stroke-linecap:square;stroke-linejoin:miter;stroke-width:0.8;"/>
   </g>
   <g id="patch_6">
    <path d="M 126 138.24 
L 907.2 138.24 
" style="fill:none;stroke:#000000;stroke-linecap:square;stroke-linejoin:miter;stroke-width:0.8;"/>
   </g>
   <g id="legend_1">
    <g id="patch_7">
     <path d="M 541.054062 231.6375 
L 897.4 231.6375 
Q 900.2 231.6375 900.2 228.8375 
L 900.2 148.04 
Q 900.2 145.24 897.4 145.24 
L 541.054062 145.24 
Q 538.254063 145.24 538.254063 148.04 
L 538.254063 228.8375 
Q 538.254063 231.6375 541.054062 231.6375 
z
" style="fill:#ffffff;opacity:0.8;stroke:#cccccc;stroke-linejoin:miter;"/>
    </g>
    <g id="line2d_17">
     <path d="M 543.854063 156.577813 
L 571.854063 156.577813 
" style="fill:none;stroke:#ffd700;stroke-linecap:square;stroke-width:2;"/>
    </g>
    <g id="line2d_18"/>
    <g id="text_15">
     <!-- micro-average Precision-recall (area = 0.43) -->
     <defs>
      <path d="M 52 44.1875 
Q 55.375 50.25 60.0625 53.125 
Q 64.75 56 71.09375 56 
Q 79.640625 56 84.28125 50.015625 
Q 88.921875 44.046875 88.921875 33.015625 
L 88.921875 0 
L 79.890625 0 
L 79.890625 32.71875 
Q 79.890625 40.578125 77.09375 44.375 
Q 74.3125 48.1875 68.609375 48.1875 
Q 61.625 48.1875 57.5625 43.546875 
Q 53.515625 38.921875 53.515625 30.90625 
L 53.515625 0 
L 44.484375 0 
L 44.484375 32.71875 
Q 44.484375 40.625 41.703125 44.40625 
Q 38.921875 48.1875 33.109375 48.1875 
Q 26.21875 48.1875 22.15625 43.53125 
Q 18.109375 38.875 18.109375 30.90625 
L 18.109375 0 
L 9.078125 0 
L 9.078125 54.6875 
L 18.109375 54.6875 
L 18.109375 46.1875 
Q 21.1875 51.21875 25.484375 53.609375 
Q 29.78125 56 35.6875 56 
Q 41.65625 56 45.828125 52.96875 
Q 50 49.953125 52 44.1875 
z
" id="DejaVuSans-109"/>
      <path d="M 4.890625 31.390625 
L 31.203125 31.390625 
L 31.203125 23.390625 
L 4.890625 23.390625 
z
" id="DejaVuSans-45"/>
      <path d="M 2.984375 54.6875 
L 12.5 54.6875 
L 29.59375 8.796875 
L 46.6875 54.6875 
L 56.203125 54.6875 
L 35.6875 0 
L 23.484375 0 
z
" id="DejaVuSans-118"/>
      <path d="M 45.40625 27.984375 
Q 45.40625 37.75 41.375 43.109375 
Q 37.359375 48.484375 30.078125 48.484375 
Q 22.859375 48.484375 18.828125 43.109375 
Q 14.796875 37.75 14.796875 27.984375 
Q 14.796875 18.265625 18.828125 12.890625 
Q 22.859375 7.515625 30.078125 7.515625 
Q 37.359375 7.515625 41.375 12.890625 
Q 45.40625 18.265625 45.40625 27.984375 
z
M 54.390625 6.78125 
Q 54.390625 -7.171875 48.1875 -13.984375 
Q 42 -20.796875 29.203125 -20.796875 
Q 24.46875 -20.796875 20.265625 -20.09375 
Q 16.0625 -19.390625 12.109375 -17.921875 
L 12.109375 -9.1875 
Q 16.0625 -11.328125 19.921875 -12.34375 
Q 23.78125 -13.375 27.78125 -13.375 
Q 36.625 -13.375 41.015625 -8.765625 
Q 45.40625 -4.15625 45.40625 5.171875 
L 45.40625 9.625 
Q 42.625 4.78125 38.28125 2.390625 
Q 33.9375 0 27.875 0 
Q 17.828125 0 11.671875 7.65625 
Q 5.515625 15.328125 5.515625 27.984375 
Q 5.515625 40.671875 11.671875 48.328125 
Q 17.828125 56 27.875 56 
Q 33.9375 56 38.28125 53.609375 
Q 42.625 51.21875 45.40625 46.390625 
L 45.40625 54.6875 
L 54.390625 54.6875 
z
" id="DejaVuSans-103"/>
      <path id="DejaVuSans-32"/>
      <path d="M 31 75.875 
Q 24.46875 64.65625 21.28125 53.65625 
Q 18.109375 42.671875 18.109375 31.390625 
Q 18.109375 20.125 21.3125 9.0625 
Q 24.515625 -2 31 -13.1875 
L 23.1875 -13.1875 
Q 15.875 -1.703125 12.234375 9.375 
Q 8.59375 20.453125 8.59375 31.390625 
Q 8.59375 42.28125 12.203125 53.3125 
Q 15.828125 64.359375 23.1875 75.875 
z
" id="DejaVuSans-40"/>
      <path d="M 10.59375 45.40625 
L 73.1875 45.40625 
L 73.1875 37.203125 
L 10.59375 37.203125 
z
M 10.59375 25.484375 
L 73.1875 25.484375 
L 73.1875 17.1875 
L 10.59375 17.1875 
z
" id="DejaVuSans-61"/>
      <path d="M 40.578125 39.3125 
Q 47.65625 37.796875 51.625 33 
Q 55.609375 28.21875 55.609375 21.1875 
Q 55.609375 10.40625 48.1875 4.484375 
Q 40.765625 -1.421875 27.09375 -1.421875 
Q 22.515625 -1.421875 17.65625 -0.515625 
Q 12.796875 0.390625 7.625 2.203125 
L 7.625 11.71875 
Q 11.71875 9.328125 16.59375 8.109375 
Q 21.484375 6.890625 26.8125 6.890625 
Q 36.078125 6.890625 40.9375 10.546875 
Q 45.796875 14.203125 45.796875 21.1875 
Q 45.796875 27.640625 41.28125 31.265625 
Q 36.765625 34.90625 28.71875 34.90625 
L 20.21875 34.90625 
L 20.21875 43.015625 
L 29.109375 43.015625 
Q 36.375 43.015625 40.234375 45.921875 
Q 44.09375 48.828125 44.09375 54.296875 
Q 44.09375 59.90625 40.109375 62.90625 
Q 36.140625 65.921875 28.71875 65.921875 
Q 24.65625 65.921875 20.015625 65.03125 
Q 15.375 64.15625 9.8125 62.3125 
L 9.8125 71.09375 
Q 15.4375 72.65625 20.34375 73.4375 
Q 25.25 74.21875 29.59375 74.21875 
Q 40.828125 74.21875 47.359375 69.109375 
Q 53.90625 64.015625 53.90625 55.328125 
Q 53.90625 49.265625 50.4375 45.09375 
Q 46.96875 40.921875 40.578125 39.3125 
z
" id="DejaVuSans-51"/>
      <path d="M 8.015625 75.875 
L 15.828125 75.875 
Q 23.140625 64.359375 26.78125 53.3125 
Q 30.421875 42.28125 30.421875 31.390625 
Q 30.421875 20.453125 26.78125 9.375 
Q 23.140625 -1.703125 15.828125 -13.1875 
L 8.015625 -13.1875 
Q 14.5 -2 17.703125 9.0625 
Q 20.90625 20.125 20.90625 31.390625 
Q 20.90625 42.671875 17.703125 53.65625 
Q 14.5 64.65625 8.015625 75.875 
z
" id="DejaVuSans-41"/>
     </defs>
     <g transform="translate(583.054063 161.477813)scale(0.14 -0.14)">
      <use xlink:href="#DejaVuSans-109"/>
      <use x="97.412109" xlink:href="#DejaVuSans-105"/>
      <use x="125.195312" xlink:href="#DejaVuSans-99"/>
      <use x="180.175781" xlink:href="#DejaVuSans-114"/>
      <use x="221.257812" xlink:href="#DejaVuSans-111"/>
      <use x="282.455078" xlink:href="#DejaVuSans-45"/>
      <use x="318.539062" xlink:href="#DejaVuSans-97"/>
      <use x="379.818359" xlink:href="#DejaVuSans-118"/>
      <use x="438.998047" xlink:href="#DejaVuSans-101"/>
      <use x="500.521484" xlink:href="#DejaVuSans-114"/>
      <use x="541.634766" xlink:href="#DejaVuSans-97"/>
      <use x="602.914062" xlink:href="#DejaVuSans-103"/>
      <use x="666.390625" xlink:href="#DejaVuSans-101"/>
      <use x="727.914062" xlink:href="#DejaVuSans-32"/>
      <use x="759.701172" xlink:href="#DejaVuSans-80"/>
      <use x="819.988281" xlink:href="#DejaVuSans-114"/>
      <use x="861.070312" xlink:href="#DejaVuSans-101"/>
      <use x="922.59375" xlink:href="#DejaVuSans-99"/>
      <use x="977.574219" xlink:href="#DejaVuSans-105"/>
      <use x="1005.357422" xlink:href="#DejaVuSans-115"/>
      <use x="1057.457031" xlink:href="#DejaVuSans-105"/>
      <use x="1085.240234" xlink:href="#DejaVuSans-111"/>
      <use x="1146.421875" xlink:href="#DejaVuSans-110"/>
      <use x="1209.800781" xlink:href="#DejaVuSans-45"/>
      <use x="1245.884766" xlink:href="#DejaVuSans-114"/>
      <use x="1286.966797" xlink:href="#DejaVuSans-101"/>
      <use x="1348.490234" xlink:href="#DejaVuSans-99"/>
      <use x="1403.470703" xlink:href="#DejaVuSans-97"/>
      <use x="1464.75" xlink:href="#DejaVuSans-108"/>
      <use x="1492.533203" xlink:href="#DejaVuSans-108"/>
      <use x="1520.316406" xlink:href="#DejaVuSans-32"/>
      <use x="1552.103516" xlink:href="#DejaVuSans-40"/>
      <use x="1591.117188" xlink:href="#DejaVuSans-97"/>
      <use x="1652.396484" xlink:href="#DejaVuSans-114"/>
      <use x="1693.478516" xlink:href="#DejaVuSans-101"/>
      <use x="1755.001953" xlink:href="#DejaVuSans-97"/>
      <use x="1816.28125" xlink:href="#DejaVuSans-32"/>
      <use x="1848.068359" xlink:href="#DejaVuSans-61"/>
      <use x="1931.857422" xlink:href="#DejaVuSans-32"/>
      <use x="1963.644531" xlink:href="#DejaVuSans-48"/>
      <use x="2027.267578" xlink:href="#DejaVuSans-46"/>
      <use x="2059.054688" xlink:href="#DejaVuSans-52"/>
      <use x="2122.677734" xlink:href="#DejaVuSans-51"/>
      <use x="2186.300781" xlink:href="#DejaVuSans-41"/>
     </g>
    </g>
    <g id="line2d_19">
     <path d="M 543.854063 177.127188 
L 571.854063 177.127188 
" style="fill:none;stroke:#0000ff;stroke-linecap:square;stroke-width:2;"/>
    </g>
    <g id="line2d_20"/>
    <g id="text_16">
     <!-- Precision-recall for class 0 (area = 0.56) -->
     <defs>
      <path d="M 37.109375 75.984375 
L 37.109375 68.5 
L 28.515625 68.5 
Q 23.6875 68.5 21.796875 66.546875 
Q 19.921875 64.59375 19.921875 59.515625 
L 19.921875 54.6875 
L 34.71875 54.6875 
L 34.71875 47.703125 
L 19.921875 47.703125 
L 19.921875 0 
L 10.890625 0 
L 10.890625 47.703125 
L 2.296875 47.703125 
L 2.296875 54.6875 
L 10.890625 54.6875 
L 10.890625 58.5 
Q 10.890625 67.625 15.140625 71.796875 
Q 19.390625 75.984375 28.609375 75.984375 
z
" id="DejaVuSans-102"/>
      <path d="M 10.796875 72.90625 
L 49.515625 72.90625 
L 49.515625 64.59375 
L 19.828125 64.59375 
L 19.828125 46.734375 
Q 21.96875 47.46875 24.109375 47.828125 
Q 26.265625 48.1875 28.421875 48.1875 
Q 40.625 48.1875 47.75 41.5 
Q 54.890625 34.8125 54.890625 23.390625 
Q 54.890625 11.625 47.5625 5.09375 
Q 40.234375 -1.421875 26.90625 -1.421875 
Q 22.3125 -1.421875 17.546875 -0.640625 
Q 12.796875 0.140625 7.71875 1.703125 
L 7.71875 11.625 
Q 12.109375 9.234375 16.796875 8.0625 
Q 21.484375 6.890625 26.703125 6.890625 
Q 35.15625 6.890625 40.078125 11.328125 
Q 45.015625 15.765625 45.015625 23.390625 
Q 45.015625 31 40.078125 35.4375 
Q 35.15625 39.890625 26.703125 39.890625 
Q 22.75 39.890625 18.8125 39.015625 
Q 14.890625 38.140625 10.796875 36.28125 
z
" id="DejaVuSans-53"/>
     </defs>
     <g transform="translate(583.054063 182.027188)scale(0.14 -0.14)">
      <use xlink:href="#DejaVuSans-80"/>
      <use x="60.287109" xlink:href="#DejaVuSans-114"/>
      <use x="101.369141" xlink:href="#DejaVuSans-101"/>
      <use x="162.892578" xlink:href="#DejaVuSans-99"/>
      <use x="217.873047" xlink:href="#DejaVuSans-105"/>
      <use x="245.65625" xlink:href="#DejaVuSans-115"/>
      <use x="297.755859" xlink:href="#DejaVuSans-105"/>
      <use x="325.539062" xlink:href="#DejaVuSans-111"/>
      <use x="386.720703" xlink:href="#DejaVuSans-110"/>
      <use x="450.099609" xlink:href="#DejaVuSans-45"/>
      <use x="486.183594" xlink:href="#DejaVuSans-114"/>
      <use x="527.265625" xlink:href="#DejaVuSans-101"/>
      <use x="588.789062" xlink:href="#DejaVuSans-99"/>
      <use x="643.769531" xlink:href="#DejaVuSans-97"/>
      <use x="705.048828" xlink:href="#DejaVuSans-108"/>
      <use x="732.832031" xlink:href="#DejaVuSans-108"/>
      <use x="760.615234" xlink:href="#DejaVuSans-32"/>
      <use x="792.402344" xlink:href="#DejaVuSans-102"/>
      <use x="827.607422" xlink:href="#DejaVuSans-111"/>
      <use x="888.789062" xlink:href="#DejaVuSans-114"/>
      <use x="929.902344" xlink:href="#DejaVuSans-32"/>
      <use x="961.689453" xlink:href="#DejaVuSans-99"/>
      <use x="1016.669922" xlink:href="#DejaVuSans-108"/>
      <use x="1044.453125" xlink:href="#DejaVuSans-97"/>
      <use x="1105.732422" xlink:href="#DejaVuSans-115"/>
      <use x="1157.832031" xlink:href="#DejaVuSans-115"/>
      <use x="1209.931641" xlink:href="#DejaVuSans-32"/>
      <use x="1241.71875" xlink:href="#DejaVuSans-48"/>
      <use x="1305.341797" xlink:href="#DejaVuSans-32"/>
      <use x="1337.128906" xlink:href="#DejaVuSans-40"/>
      <use x="1376.142578" xlink:href="#DejaVuSans-97"/>
      <use x="1437.421875" xlink:href="#DejaVuSans-114"/>
      <use x="1478.503906" xlink:href="#DejaVuSans-101"/>
      <use x="1540.027344" xlink:href="#DejaVuSans-97"/>
      <use x="1601.306641" xlink:href="#DejaVuSans-32"/>
      <use x="1633.09375" xlink:href="#DejaVuSans-61"/>
      <use x="1716.882812" xlink:href="#DejaVuSans-32"/>
      <use x="1748.669922" xlink:href="#DejaVuSans-48"/>
      <use x="1812.292969" xlink:href="#DejaVuSans-46"/>
      <use x="1844.080078" xlink:href="#DejaVuSans-53"/>
      <use x="1907.703125" xlink:href="#DejaVuSans-54"/>
      <use x="1971.326172" xlink:href="#DejaVuSans-41"/>
     </g>
    </g>
    <g id="line2d_21">
     <path d="M 543.854063 197.676563 
L 571.854063 197.676563 
" style="fill:none;stroke:#008000;stroke-linecap:square;stroke-width:2;"/>
    </g>
    <g id="line2d_22"/>
    <g id="text_17">
     <!-- Precision-recall for class 1 (area = 0.37) -->
     <defs>
      <path d="M 8.203125 72.90625 
L 55.078125 72.90625 
L 55.078125 68.703125 
L 28.609375 0 
L 18.3125 0 
L 43.21875 64.59375 
L 8.203125 64.59375 
z
" id="DejaVuSans-55"/>
     </defs>
     <g transform="translate(583.054063 202.576563)scale(0.14 -0.14)">
      <use xlink:href="#DejaVuSans-80"/>
      <use x="60.287109" xlink:href="#DejaVuSans-114"/>
      <use x="101.369141" xlink:href="#DejaVuSans-101"/>
      <use x="162.892578" xlink:href="#DejaVuSans-99"/>
      <use x="217.873047" xlink:href="#DejaVuSans-105"/>
      <use x="245.65625" xlink:href="#DejaVuSans-115"/>
      <use x="297.755859" xlink:href="#DejaVuSans-105"/>
      <use x="325.539062" xlink:href="#DejaVuSans-111"/>
      <use x="386.720703" xlink:href="#DejaVuSans-110"/>
      <use x="450.099609" xlink:href="#DejaVuSans-45"/>
      <use x="486.183594" xlink:href="#DejaVuSans-114"/>
      <use x="527.265625" xlink:href="#DejaVuSans-101"/>
      <use x="588.789062" xlink:href="#DejaVuSans-99"/>
      <use x="643.769531" xlink:href="#DejaVuSans-97"/>
      <use x="705.048828" xlink:href="#DejaVuSans-108"/>
      <use x="732.832031" xlink:href="#DejaVuSans-108"/>
      <use x="760.615234" xlink:href="#DejaVuSans-32"/>
      <use x="792.402344" xlink:href="#DejaVuSans-102"/>
      <use x="827.607422" xlink:href="#DejaVuSans-111"/>
      <use x="888.789062" xlink:href="#DejaVuSans-114"/>
      <use x="929.902344" xlink:href="#DejaVuSans-32"/>
      <use x="961.689453" xlink:href="#DejaVuSans-99"/>
      <use x="1016.669922" xlink:href="#DejaVuSans-108"/>
      <use x="1044.453125" xlink:href="#DejaVuSans-97"/>
      <use x="1105.732422" xlink:href="#DejaVuSans-115"/>
      <use x="1157.832031" xlink:href="#DejaVuSans-115"/>
      <use x="1209.931641" xlink:href="#DejaVuSans-32"/>
      <use x="1241.71875" xlink:href="#DejaVuSans-49"/>
      <use x="1305.341797" xlink:href="#DejaVuSans-32"/>
      <use x="1337.128906" xlink:href="#DejaVuSans-40"/>
      <use x="1376.142578" xlink:href="#DejaVuSans-97"/>
      <use x="1437.421875" xlink:href="#DejaVuSans-114"/>
      <use x="1478.503906" xlink:href="#DejaVuSans-101"/>
      <use x="1540.027344" xlink:href="#DejaVuSans-97"/>
      <use x="1601.306641" xlink:href="#DejaVuSans-32"/>
      <use x="1633.09375" xlink:href="#DejaVuSans-61"/>
      <use x="1716.882812" xlink:href="#DejaVuSans-32"/>
      <use x="1748.669922" xlink:href="#DejaVuSans-48"/>
      <use x="1812.292969" xlink:href="#DejaVuSans-46"/>
      <use x="1844.080078" xlink:href="#DejaVuSans-51"/>
      <use x="1907.703125" xlink:href="#DejaVuSans-55"/>
      <use x="1971.326172" xlink:href="#DejaVuSans-41"/>
     </g>
    </g>
    <g id="line2d_23">
     <path d="M 543.854063 218.225938 
L 571.854063 218.225938 
" style="fill:none;stroke:#ff0000;stroke-linecap:square;stroke-width:2;"/>
    </g>
    <g id="line2d_24"/>
    <g id="text_18">
     <!-- Precision-recall for class 2 (area = 0.46) -->
     <g transform="translate(583.054063 223.125938)scale(0.14 -0.14)">
      <use xlink:href="#DejaVuSans-80"/>
      <use x="60.287109" xlink:href="#DejaVuSans-114"/>
      <use x="101.369141" xlink:href="#DejaVuSans-101"/>
      <use x="162.892578" xlink:href="#DejaVuSans-99"/>
      <use x="217.873047" xlink:href="#DejaVuSans-105"/>
      <use x="245.65625" xlink:href="#DejaVuSans-115"/>
      <use x="297.755859" xlink:href="#DejaVuSans-105"/>
      <use x="325.539062" xlink:href="#DejaVuSans-111"/>
      <use x="386.720703" xlink:href="#DejaVuSans-110"/>
      <use x="450.099609" xlink:href="#DejaVuSans-45"/>
      <use x="486.183594" xlink:href="#DejaVuSans-114"/>
      <use x="527.265625" xlink:href="#DejaVuSans-101"/>
      <use x="588.789062" xlink:href="#DejaVuSans-99"/>
      <use x="643.769531" xlink:href="#DejaVuSans-97"/>
      <use x="705.048828" xlink:href="#DejaVuSans-108"/>
      <use x="732.832031" xlink:href="#DejaVuSans-108"/>
      <use x="760.615234" xlink:href="#DejaVuSans-32"/>
      <use x="792.402344" xlink:href="#DejaVuSans-102"/>
      <use x="827.607422" xlink:href="#DejaVuSans-111"/>
      <use x="888.789062" xlink:href="#DejaVuSans-114"/>
      <use x="929.902344" xlink:href="#DejaVuSans-32"/>
      <use x="961.689453" xlink:href="#DejaVuSans-99"/>
      <use x="1016.669922" xlink:href="#DejaVuSans-108"/>
      <use x="1044.453125" xlink:href="#DejaVuSans-97"/>
      <use x="1105.732422" xlink:href="#DejaVuSans-115"/>
      <use x="1157.832031" xlink:href="#DejaVuSans-115"/>
      <use x="1209.931641" xlink:href="#DejaVuSans-32"/>
      <use x="1241.71875" xlink:href="#DejaVuSans-50"/>
      <use x="1305.341797" xlink:href="#DejaVuSans-32"/>
      <use x="1337.128906" xlink:href="#DejaVuSans-40"/>
      <use x="1376.142578" xlink:href="#DejaVuSans-97"/>
      <use x="1437.421875" xlink:href="#DejaVuSans-114"/>
      <use x="1478.503906" xlink:href="#DejaVuSans-101"/>
      <use x="1540.027344" xlink:href="#DejaVuSans-97"/>
      <use x="1601.306641" xlink:href="#DejaVuSans-32"/>
      <use x="1633.09375" xlink:href="#DejaVuSans-61"/>
      <use x="1716.882812" xlink:href="#DejaVuSans-32"/>
      <use x="1748.669922" xlink:href="#DejaVuSans-48"/>
      <use x="1812.292969" xlink:href="#DejaVuSans-46"/>
      <use x="1844.080078" xlink:href="#DejaVuSans-52"/>
      <use x="1907.703125" xlink:href="#DejaVuSans-54"/>
      <use x="1971.326172" xlink:href="#DejaVuSans-41"/>
     </g>
    </g>
   </g>
  </g>
 </g>
 <defs>
  <clipPath id="p3b5307a6d9">
   <rect height="725.76" width="781.2" x="126" y="138.24"/>
  </clipPath>
 </defs>
</svg>
